<svg xmlns="http://www.w3.org/2000/svg" viewBox="0 0 22 22">
  <defs id="defs3051">
    <style type="text/css" id="current-color-scheme">
      .ColorScheme-Text {
        color:#3a3a3a
      }
      </style>
  </defs>
  <path
     style="fill:currentColor;fill-opacity:1;stroke:none"
     d="m 3,3 v 1 14 1 H 19 V 18 4 3 H 18 4 Z m 1,1 h 7 v 0.845703 h 0.845703 V 4 H 18 V 18 H 4 Z m 7,0.845703 H 10.154297 V 5.691406 H 11 Z m 0,0.845703 v 0.847656 h 0.845703 V 5.691406 Z m 0,0.847656 H 10.154297 V 7.384766 H 11 Z m 0,0.845704 v 0.845703 c 0.467044,0 0.845703,-0.422665 0.845703,-0.845703 z m 0,0.845703 c -0.934998,0 -1.6914062,0.762665 -1.6914062,1.693359 v 3.384766 C 9.3085936,14.23937 10.065002,15 11,15 c 0.935002,0 1.691406,-0.76063 1.691406,-1.691406 V 9.923828 C 12.691406,8.993134 11.935002,8.230469 11,8.230469 Z m 0,0.845703 c 0.467044,0 0.845703,0.339971 0.845703,0.847656 0,0.423093 -0.378647,0.845703 -0.845703,0.845703 -0.467041,0 -0.845703,-0.42261 -0.845703,-0.845703 0,-0.507685 0.378651,-0.847656 0.845703,-0.847656 z m 0,2.539062 c 0.467044,0 0.845703,0.337965 0.845703,0.845704 v 0.847656 c 0,0.423093 -0.378647,0.845703 -0.845703,0.845703 -0.467041,0 -0.845703,-0.42261 -0.845703,-0.845703 v -0.847656 c 0,-0.50774 0.378651,-0.845704 0.845703,-0.845704 z"
     id="path35"
     class="ColorScheme-Text" />
</svg>
