<svg xmlns="http://www.w3.org/2000/svg" viewBox="0 0 22 22">
  <defs id="defs3051">
    <style type="text/css" id="current-color-scheme">
      .ColorScheme-Text {
        color:#3a3a3a
      }
      </style>
  </defs>
  <path
     style="fill:currentColor;fill-opacity:1;stroke:none"
     d="M 13.5 3 L 11.357422 4 L 4.5 4 L 3.5 4 L 3.5 6 L 2.5 6 L 2.5 7 L 2.5 19 L 3.5 19 L 13.5 19 L 13.5 18 L 3.5 18 L 3.5 7 L 18.5 7 L 18.5 13 L 19.5 13 L 19.5 7 L 19.5 6 L 18.5 6 L 18.5 3 L 17.5 3 L 13.5 3 z M 13.720703 4 L 17.5 4 L 17.5 6 L 4.5 6 L 4.5 5 L 6.5 5 L 10.019531 5 L 11.578125 5 L 13.720703 4 z M 16 13 L 16 15.5 L 13.5 15.5 L 13.5 16.5 L 16 16.5 L 16 19 L 17 19 L 17 16.5 L 19.5 16.5 L 19.5 15.5 L 17 15.5 L 17 13 L 16 13 z "
     id="rect833"
      class="ColorScheme-Text"/>
</svg>
