<svg xmlns="http://www.w3.org/2000/svg" viewBox="0 0 22 22">
  <defs id="defs3051">
    <style type="text/css" id="current-color-scheme">
      .ColorScheme-Text {
        color:#3a3a3a
      }
      </style>
  </defs>
  <path
     style="fill:currentColor;fill-opacity:1;stroke:none"
     d="M 11.03711,3 A 8,8 0 0 0 5.4375005,5.296875 L 4.3769535,4.2363281 3.6699215,6.3574219 2.9628905,8.4785156 5.0839845,7.7714844 7.2050785,7.0644531 6.1406255,6 A 7,7 0 0 1 11.03711,4 7,7 0 0 1 18.037109,11 7,7 0 0 1 11.03711,18 7,7 0 0 1 4.0371095,11 h -1 A 8,8 0 0 0 11.03711,19 8,8 0 0 0 19.037109,11 8,8 0 0 0 11.03711,3 Z m -0.537109,3.5859375 v 6.0000005 l 2.828125,2.828124 0.707031,-0.707031 -2.535156,-2.535156 V 6.5859375 Z"
     id="path821"
     class="ColorScheme-Text" />
</svg>
