<svg xmlns="http://www.w3.org/2000/svg" viewBox="0 0 22 22">
  <defs id="defs3051">
    <style type="text/css" id="current-color-scheme">
      .ColorScheme-Text {
        color:#3a3a3a
      }
      </style>
  </defs>
  <g
     aria-label="{}"
     style="font-style:normal;font-weight:normal;font-size:8.66878319px;line-height:1.25;font-family:sans-serif;letter-spacing:0px;word-spacing:0px;fill:#000000;fill-opacity:1;stroke:none;stroke-width:0.81269836"
     id="text870"
     transform="translate(23,1)">
    <path
       id="path875"
       style="fill:currentColor;fill-opacity:1;stroke:none" 
       d="m -11.238095,13.191535 h 0.512169 q 0.440212,0 0.592593,-0.182011 0.1523806,-0.182011 0.1523806,-0.787302 v -0.867724 q 0,-0.69418 0.2074075,-0.982011 Q -9.5661375,10.084656 -9.037037,9.9957674 -9.5703703,9.9153441 -9.7777777,9.6317462 -9.9809524,9.3481483 -9.9809524,8.6497356 V 7.7650795 q 0,-0.5968254 -0.1523806,-0.7788359 -0.148148,-0.1820106 -0.592593,-0.1820106 h -0.512169 V 6.0000002 h 0.63492 q 1.0497359,0 1.4010586,0.3132275 0.3555556,0.3089947 0.3555556,1.2444444 v 0.910053 q 0,0.6391534 0.2285714,0.8846561 0.2328043,0.2412698 0.8296297,0.2412698 h 0.2624338 v 0.808466 h -0.2624338 q -0.5968254,0 -0.8296297,0.245502 -0.2285714,0.245503 -0.2285714,0.880424 v 0.910052 q 0,0.93545 -0.3555556,1.248678 Q -9.5534391,14 -10.603175,14 h -0.63492 z m -1.52381,0 V 14 h -0.63492 q -1.053969,0 -1.413757,-0.313227 -0.355555,-0.313228 -0.355555,-1.248678 v -0.910052 q 0,-0.639154 -0.228572,-0.880424 -0.224339,-0.245502 -0.816931,-0.245502 h -0.262434 V 9.593651 h 0.262434 q 0.592592,0 0.816931,-0.2412698 0.228572,-0.2412699 0.228572,-0.8846561 v -0.910053 q 0,-0.9354497 0.355555,-1.2444444 0.359788,-0.3132275 1.413757,-0.3132275 h 0.63492 V 6.804233 h -0.520635 q -0.440211,0 -0.588359,0.1777777 -0.148149,0.1777778 -0.148149,0.7830688 v 0.8846561 q 0,0.6984127 -0.207407,0.9820106 -0.207407,0.2835979 -0.740741,0.3640212 0.533334,0.088889 0.740741,0.3767196 0.207407,0.287831 0.207407,0.982011 v 0.867724 q 0,0.609524 0.148149,0.787302 0.148148,0.182011 0.588359,0.182011 z M -20,2 v 1 15 h 1 15 V 17 3 2 h -1 -14 z m 1,1 h 14 v 14 h -14 z"
       class="ColorScheme-Text" />
  </g>
</svg>
