<?xml version="1.0" encoding="UTF-8" standalone="no"?>
<svg
   xmlns:dc="http://purl.org/dc/elements/1.1/"
   xmlns:cc="http://creativecommons.org/ns#"
   xmlns:rdf="http://www.w3.org/1999/02/22-rdf-syntax-ns#"
   xmlns:svg="http://www.w3.org/2000/svg"
   xmlns="http://www.w3.org/2000/svg"
   xmlns:sodipodi="http://sodipodi.sourceforge.net/DTD/sodipodi-0.dtd"
   xmlns:inkscape="http://www.inkscape.org/namespaces/inkscape"
   viewBox="0 0 16 16"
   version="1.1"
   id="svg6"
   sodipodi:docname="folder-tar.svg"
   inkscape:version="0.92.4 5da689c313, 2019-01-14">
  <metadata
     id="metadata10">
    <rdf:RDF>
      <cc:Work
         rdf:about="">
        <dc:format>image/svg+xml</dc:format>
        <dc:type
           rdf:resource="http://purl.org/dc/dcmitype/StillImage" />
        <dc:title></dc:title>
      </cc:Work>
    </rdf:RDF>
  </metadata>
  <sodipodi:namedview
     pagecolor="#ffffff"
     bordercolor="#666666"
     borderopacity="1"
     objecttolerance="10"
     gridtolerance="10"
     guidetolerance="10"
     inkscape:pageopacity="0"
     inkscape:pageshadow="2"
     inkscape:window-width="3840"
     inkscape:window-height="2012"
     id="namedview8"
     showgrid="true"
     inkscape:zoom="83.4386"
     inkscape:cx="10.460702"
     inkscape:cy="4.9039004"
     inkscape:window-x="0"
     inkscape:window-y="0"
     inkscape:window-maximized="1"
     inkscape:current-layer="svg6">
    <inkscape:grid
       type="xygrid"
       id="grid823" />
  </sodipodi:namedview>
  <defs
     id="defs3051">
    <style
       type="text/css"
       id="current-color-scheme">
      .ColorScheme-Text {
        color:#232629;
      }
      </style>
  </defs>
  <path
     style="fill:#3a3a3a;fill-opacity:1;stroke:none"
     d="M 2 2 L 2 14 L 14 14 L 14 2 L 2 2 z M 3 3 L 5 3 L 7 3 L 8 3 L 11.121094 3 L 13 3 L 13 13 L 3 13 L 3 3 z "
     id="path4" />
  <path
     inkscape:connector-curvature="0"
     style="opacity:1;fill:#3a3a3a;fill-opacity:1;stroke-width:0.06666675"
     d="M 7.9999984,3 V 3.615408 H 8.6154001 V 3 Z m 0,0.615408 H 7.3846 v 0.6153872 h 0.6153984 z m 0,0.6153872 v 0.615348 h 0.6154017 v -0.615348 z m 0,0.615348 H 7.3846 v 0.6153872 h 0.6153984 z m 0,0.6153872 v 0.615408 c 0.3396683,0 0.6154017,-0.307744 0.6154017,-0.615408 z m 0,1.230796 c 0.3396683,0 0.6154017,0.2461224 0.6154017,0.6153472 0,0.307704 -0.2757243,0.615388 -0.6154017,0.615388 -0.339665,0 -0.6153984,-0.307684 -0.6153984,-0.615388 0,-0.3692248 0.2757244,-0.6153472 0.6153984,-0.6153472 z m 0,1.8461432 c 0.3396683,0 0.6154017,0.2461224 0.6154017,0.6153874 v 0.615348 c 0,0.307704 -0.2757243,0.615387 -0.6154017,0.615387 -0.339665,0 -0.6153984,-0.307683 -0.6153984,-0.615387 V 9.153857 c 0,-0.369265 0.2757244,-0.6153874 0.6153984,-0.6153874 z m 0,-2.4615312 C 7.32,6.0769384 6.7691982,6.6308056 6.7691982,7.3076736 V 9.769205 C 6.7691982,10.446133 7.32,11 7.9999984,11 8.6799999,11 9.2308018,10.446133 9.2308018,9.769205 V 7.3076736 c 0,-0.676868 -0.5508019,-1.2307352 -1.2308034,-1.2307352 z"
     id="path35" />
</svg>
