<?xml version="1.0" encoding="UTF-8" standalone="no"?>
<svg
   xmlns:dc="http://purl.org/dc/elements/1.1/"
   xmlns:cc="http://creativecommons.org/ns#"
   xmlns:rdf="http://www.w3.org/1999/02/22-rdf-syntax-ns#"
   xmlns:svg="http://www.w3.org/2000/svg"
   xmlns="http://www.w3.org/2000/svg"
   xmlns:sodipodi="http://sodipodi.sourceforge.net/DTD/sodipodi-0.dtd"
   xmlns:inkscape="http://www.inkscape.org/namespaces/inkscape"
   height="16"
   width="16"
   version="1.1"
   id="svg9"
   sodipodi:docname="folder-games-symbolic.svg"
   inkscape:version="0.92.4 5da689c313, 2019-01-14">
  <metadata
     id="metadata15">
    <rdf:RDF>
      <cc:Work
         rdf:about="">
        <dc:format>image/svg+xml</dc:format>
        <dc:type
           rdf:resource="http://purl.org/dc/dcmitype/StillImage" />
      </cc:Work>
    </rdf:RDF>
  </metadata>
  <defs
     id="defs13" />
  <sodipodi:namedview
     pagecolor="#ffffff"
     bordercolor="#666666"
     borderopacity="1"
     objecttolerance="10"
     gridtolerance="10"
     guidetolerance="10"
     inkscape:pageopacity="0"
     inkscape:pageshadow="2"
     inkscape:window-width="3840"
     inkscape:window-height="2012"
     id="namedview11"
     showgrid="false"
     inkscape:zoom="14.75"
     inkscape:cx="-10.40678"
     inkscape:cy="8"
     inkscape:window-x="0"
     inkscape:window-y="0"
     inkscape:window-maximized="1"
     inkscape:current-layer="svg9" />
  <style
     type="text/css"
     id="current-color-scheme">
    .ColorScheme-Text {
        color:#232629;
    }
    </style>
  <g
     fill="currentColor"
     class="ColorScheme-Text"
     id="g7">
    <path
       d="m5 6v1h-1v1h1v1h1v-1h1v-1h-1v-1zm5.5-.1a.6.6 0 0 0 -.6.6.6.6 0 0 0 .6.6.6.6 0 0 0 .6-.6.6.6 0 0 0 -.6-.6zm-1 1a.6.6 0 0 0 -.6.6.6.6 0 0 0 .6.6.6.6 0 0 0 .6-.6.6.6 0 0 0 -.6-.6zm2 0a.6.6 0 0 0 -.6.6.6.6 0 0 0 .6.6.6.6 0 0 0 .6-.6.6.6 0 0 0 -.6-.6zm-1 1a.6.6 0 0 0 -.6.6.6.6 0 0 0 .6.6.6.6 0 0 0 .6-.6.6.6 0 0 0 -.6-.6z"
       id="path3"
       style="fill:#3a3a3a;fill-opacity:1" />
    <path
       d="m4 4a2 4 0 0 0 -2 4v2.5a1.5 1.5 0 0 0 2.56 1.06l.944-.943a1.5 1.5 0 0 0 .996.383 1.5 1.5 0 0 0 1.5-1.5 1.5 1.5 0 0 0 2.498 1.12l.941.94a1.5 1.5 0 0 0 2.561-1.06v-2.5a2 4 0 0 0 -2-4zm0 1h8a1 3 0 0 1 1 3v2.5a.5.5 0 0 1 -.854.354l-1.853-1.854h-.293v.5a.5.5 0 0 1 -1 0v-.5h-2v.5a.5.5 0 0 1 -1 0v-.5h-.293l-1.853 1.854a.5.5 0 0 1 -.854-.354v-2.5a1 3 0 0 1 1-3z"
       id="path5"
       style="fill:#3a3a3a;fill-opacity:1" />
  </g>
</svg>
