<?xml version="1.0" encoding="UTF-8" standalone="no"?>
<svg
   xmlns:dc="http://purl.org/dc/elements/1.1/"
   xmlns:cc="http://creativecommons.org/ns#"
   xmlns:rdf="http://www.w3.org/1999/02/22-rdf-syntax-ns#"
   xmlns:svg="http://www.w3.org/2000/svg"
   xmlns="http://www.w3.org/2000/svg"
   xmlns:sodipodi="http://sodipodi.sourceforge.net/DTD/sodipodi-0.dtd"
   xmlns:inkscape="http://www.inkscape.org/namespaces/inkscape"
   viewBox="0 0 16 16"
   version="1.1"
   id="svg6"
   sodipodi:docname="folder-temp.svg"
   inkscape:version="0.92.4 5da689c313, 2019-01-14">
  <metadata
     id="metadata10">
    <rdf:RDF>
      <cc:Work
         rdf:about="">
        <dc:format>image/svg+xml</dc:format>
        <dc:type
           rdf:resource="http://purl.org/dc/dcmitype/StillImage" />
        <dc:title></dc:title>
      </cc:Work>
    </rdf:RDF>
  </metadata>
  <sodipodi:namedview
     pagecolor="#ffffff"
     bordercolor="#666666"
     borderopacity="1"
     objecttolerance="10"
     gridtolerance="10"
     guidetolerance="10"
     inkscape:pageopacity="0"
     inkscape:pageshadow="2"
     inkscape:window-width="3840"
     inkscape:window-height="2012"
     id="namedview8"
     showgrid="true"
     inkscape:zoom="55.03125"
     inkscape:cx="8"
     inkscape:cy="8"
     inkscape:window-x="0"
     inkscape:window-y="0"
     inkscape:window-maximized="1"
     inkscape:current-layer="svg6">
    <inkscape:grid
       type="xygrid"
       id="grid817" />
  </sodipodi:namedview>
  <defs
     id="defs3051">
    <style
       type="text/css"
       id="current-color-scheme">
      .ColorScheme-Text {
        color:#232629;
      }
      </style>
  </defs>
  <path
     style="opacity:1;fill:#3a3a3a;fill-opacity:1;stroke:none;stroke-width:1.35391927px;stroke-linecap:butt;stroke-linejoin:miter;stroke-opacity:1"
     d="M 7.9992974,2.0846397 C 6.460016,2.1069997 4.990195,2.7290124 3.901934,3.8178586 L 3.063049,2.9812787 2,6.6003014 5.621302,5.5372144 4.738508,4.6544383 c 1.848225,-1.8478365 4.8443705,-1.8478365 6.692592,0 1.847804,1.8482391 1.847804,4.8443551 0,6.6925937 -1.8482215,1.847836 -4.844367,1.847836 -6.692592,0 C 4.055891,10.663753 3.598653,9.7879534 3.428184,8.8372924 H 2.233408 c 0.179775,1.2664746 0.765215,2.4406016 1.668526,3.3463186 2.310283,2.309796 6.055461,2.309796 8.365739,0 2.309769,-2.3102866 2.309769,-6.0554646 0,-8.3657524 C 11.137514,2.6871095 9.5978332,2.0619219 7.9992974,2.0846397 Z M 7.407687,4.6544383 v 4.7328671 h 0.0069 l -0.0069,0.0089 1.6731486,1.6731596 0.8365736,-0.83658 L 8.5909077,8.9039704 V 4.6564508 Z"
     id="path870"
     inkscape:connector-curvature="0" />
</svg>
