<svg xmlns="http://www.w3.org/2000/svg" viewBox="0 0 22 22">
  <defs id="defs3051">
    <style type="text/css" id="current-color-scheme">
      .ColorScheme-Text {
        color:#3a3a3a;
      }
      </style>
  </defs>
  <g
     transform="matrix(1.375,0,0,1.375,0,-1424.998)"
     id="g6">
    <path
       style="color:#3a3a3a;fill:currentColor;fill-opacity:1;stroke:none"
       d="m 8,1038.3622 c -1.662,0 -3,1.338 -3,3 v 3 H 3 v 0.75 5.25 c 3.4472235,0 7.033564,0 10,0 v -6 c -0.833333,0 -1.166667,0 -2,0 v -3 c 0,-1.662 -1.338,-3 -3,-3 z m 0,1 c 1.2465,0 2,0.5458 2,2 v 3 H 6 v -3 c 0,-1.4542 0.753506,-2 2,-2 z m -4,6 h 8 v 4 H 4 Z"
       class="ColorScheme-Text"
       id="path4"
       inkscape:connector-curvature="0" />
  </g>
</svg>
