<?xml version="1.0" encoding="UTF-8" standalone="no"?>
<svg
   xmlns:dc="http://purl.org/dc/elements/1.1/"
   xmlns:cc="http://creativecommons.org/ns#"
   xmlns:rdf="http://www.w3.org/1999/02/22-rdf-syntax-ns#"
   xmlns:svg="http://www.w3.org/2000/svg"
   xmlns="http://www.w3.org/2000/svg"
   xmlns:sodipodi="http://sodipodi.sourceforge.net/DTD/sodipodi-0.dtd"
   xmlns:inkscape="http://www.inkscape.org/namespaces/inkscape"
   viewBox="0 0 16 16"
   version="1.1"
   id="svg6"
   sodipodi:docname="mail-folder-outbox.svg"
   inkscape:version="0.92.4 5da689c313, 2019-01-14">
  <metadata
     id="metadata10">
    <rdf:RDF>
      <cc:Work
         rdf:about="">
        <dc:format>image/svg+xml</dc:format>
        <dc:type
           rdf:resource="http://purl.org/dc/dcmitype/StillImage" />
      </cc:Work>
    </rdf:RDF>
  </metadata>
  <sodipodi:namedview
     pagecolor="#ffffff"
     bordercolor="#666666"
     borderopacity="1"
     objecttolerance="10"
     gridtolerance="10"
     guidetolerance="10"
     inkscape:pageopacity="0"
     inkscape:pageshadow="2"
     inkscape:window-width="3840"
     inkscape:window-height="2012"
     id="namedview8"
     showgrid="false"
     inkscape:zoom="14.75"
     inkscape:cx="-10.40678"
     inkscape:cy="8"
     inkscape:window-x="0"
     inkscape:window-y="0"
     inkscape:window-maximized="1"
     inkscape:current-layer="svg6" />
  <defs
     id="defs3051">
    <style
       type="text/css"
       id="current-color-scheme">
      .ColorScheme-Text {
        color:#232629;
      }
      </style>
  </defs>
  <path
     style="fill:#3a3a3a;fill-opacity:1;stroke:none"
     d="M 8 2 L 5 5 L 7 5 L 7 7 L 9 7 L 9 5 L 10 5 L 11 5 L 8 2 z M 3.8828125 6 L 1 10.994141 L 1 11.003906 L 1 12.996094 L 1 14.003906 L 4 14.003906 L 15 14.003906 L 15 13.003906 L 15 11.011719 L 15 11.001953 L 12.117188 6.0078125 L 12 6.0078125 L 10 6.0078125 L 10 7 L 11.539062 7 L 13.847656 11 L 12 11 L 11 12 L 5 12 L 4 11 L 2.1503906 11 L 4.4589844 7 L 6 7 L 6 6.0078125 L 5.0371094 6.0078125 L 3.8828125 6.0078125 L 3.8828125 6 z M 2 1041.3613 L 2 1042.3613 L 7 1042.3613 L 7 1044.3613 L 9 1044.3613 L 9 1042.3613 L 9 1041.3613 L 2 1041.3613 z "
     class="ColorScheme-Text"
     id="path4" />
</svg>
