<?xml version="1.0" encoding="UTF-8" standalone="no"?>
<!-- Created with Inkscape (http://www.inkscape.org/) -->

<svg
   xmlns:dc="http://purl.org/dc/elements/1.1/"
   xmlns:cc="http://creativecommons.org/ns#"
   xmlns:rdf="http://www.w3.org/1999/02/22-rdf-syntax-ns#"
   xmlns:svg="http://www.w3.org/2000/svg"
   xmlns="http://www.w3.org/2000/svg"
   xmlns:xlink="http://www.w3.org/1999/xlink"
   xmlns:sodipodi="http://sodipodi.sourceforge.net/DTD/sodipodi-0.dtd"
   xmlns:inkscape="http://www.inkscape.org/namespaces/inkscape"
   width="64"
   height="64"
   viewBox="0 0 16.933333 16.933333"
   version="1.1"
   id="svg8"
   inkscape:version="0.92.4 5da689c313, 2019-01-14"
   sodipodi:docname="folder-decrypted.svg"
   inkscape:export-filename="/home/kieran/.themes/skism-gtk/gtk-3.0/check-radio/checkbox-mixed-disabled.png"
   inkscape:export-xdpi="96"
   inkscape:export-ydpi="96">
  <defs
     id="defs2">
    <linearGradient
       inkscape:collect="always"
       xlink:href="#linearGradient893"
       id="linearGradient860"
       gradientUnits="userSpaceOnUse"
       gradientTransform="matrix(0.94581281,0,0,1.0231148,19.002135,-8.6979604)"
       x1="-10.583333"
       y1="286.41666"
       x2="-10.583333"
       y2="297.52914" />
    <linearGradient
       inkscape:collect="always"
       id="linearGradient893">
      <stop
         style="stop-color:#58595a;stop-opacity:1"
         offset="0"
         id="stop887" />
      <stop
         id="stop889"
         offset="0.92607242"
         style="stop-color:#343536;stop-opacity:1" />
      <stop
         style="stop-color:#18191a;stop-opacity:1"
         offset="1"
         id="stop891" />
    </linearGradient>
  </defs>
  <sodipodi:namedview
     id="base"
     pagecolor="#1e2023"
     bordercolor="#666666"
     borderopacity="1.0"
     inkscape:pageopacity="0"
     inkscape:pageshadow="2"
     inkscape:zoom="13.757812"
     inkscape:cx="-20.447323"
     inkscape:cy="14.680056"
     inkscape:document-units="mm"
     inkscape:current-layer="layer1"
     showgrid="true"
     units="px"
     inkscape:showpageshadow="false"
     inkscape:window-width="3840"
     inkscape:window-height="2013"
     inkscape:window-x="0"
     inkscape:window-y="0"
     inkscape:window-maximized="1"
     inkscape:snap-grids="false"
     inkscape:snap-smooth-nodes="false">
    <inkscape:grid
       type="xygrid"
       id="grid815"
       color="#3f3f3f"
       opacity="0.1254902"
       empcolor="#3f3f3f"
       empopacity="0.25098039" />
  </sodipodi:namedview>
  <metadata
     id="metadata5">
    <rdf:RDF>
      <cc:Work
         rdf:about="">
        <dc:format>image/svg+xml</dc:format>
        <dc:type
           rdf:resource="http://purl.org/dc/dcmitype/StillImage" />
        <dc:title></dc:title>
      </cc:Work>
    </rdf:RDF>
  </metadata>
  <g
     inkscape:label="Layer 1"
     inkscape:groupmode="layer"
     id="layer1"
     transform="translate(0,-280.06664)">
    <g
       id="g833"
       transform="translate(0,-0.06219625)">
      <path
         inkscape:connector-curvature="0"
         id="rect4180-3-9-6"
         d="m 2.660952,283.0742 v 9.4e-4 c 1.026349,-3.5e-4 4.42968,-2e-4 4.838095,0 0.357284,1.7e-4 0.90149,0.48537 1.192515,0.4857 2.021634,0.002 6.064628,-0.004 6.064628,-0.004 v 0.004 h -0.224896 c 0.124058,0 0.224896,0.10824 0.224896,0.24191 v 5.32096 c 0,0.13407 -0.100456,0.2419 -0.224896,0.2419 H 2.402039 c -0.124442,0 -0.224896,-0.10787 -0.224896,-0.2419 v -5.32285 -0.24285 -0.21167 c 0,-0.15104 0.12115,-0.27214 0.272143,-0.27214 z"
         style="fill:#303132;fill-opacity:1;stroke-width:0.23313032" />
      <path
         sodipodi:nodetypes="sssccsssssccscs"
         inkscape:connector-curvature="0"
         id="rect4113-2-5-2-2"
         d="m 6.990313,284.33597 c -0.3877178,0.004 -0.5521738,1.07879 -1.0009838,1.0828 -1.501427,0.0138 -4.504436,0 -4.504436,0 -0.138204,0 -0.250246,0.12105 -0.250246,0.27071 h 4.85e-4 c -1.3e-5,10e-4 -4.85e-4,0.002 -4.85e-4,0.004 v 9.74199 c 0,0.14954 0.112037,0.27071 0.250246,0.27071 H 15.498686 c 0.138208,0 0.250247,-0.12125 0.250247,-0.27071 v -9.74199 -0.004 -1.08281 c 0,-0.14954 -0.112039,-0.2707 -0.250247,-0.2707 -0.91123,9e-5 -5.6723799,-0.0295 -8.508373,0 z"
         style="fill:url(#linearGradient860);fill-opacity:1;stroke:#303132;stroke-width:0.06614583;stroke-miterlimit:4;stroke-dasharray:none;stroke-opacity:1;paint-order:stroke fill markers" />
      <path
         inkscape:connector-curvature="0"
         id="rect4184"
         d="m 8.516692,287.59548 c -0.80409,0 -1.451422,0.64733 -1.451422,1.45143 h 0.483806 c 0,-0.53606 0.431557,-0.96761 0.967616,-0.96761 0.536058,0 0.967615,0.43155 0.967615,0.96761 v 0.96762 H 7.549076 7.06527 6.581462 v 2.41904 h 3.870459 v -2.41904 H 9.968114 v -0.96762 c 0,-0.8041 -0.647333,-1.45143 -1.451422,-1.45143 z m -1.451422,2.90285 h 0.483806 1.935231 0.483807 v 1.45142 H 7.06527 Z"
         style="opacity:0.25;fill:#ffffff;fill-opacity:1;stroke-width:0.48380747" />
      <path
         inkscape:connector-curvature="0"
         id="rect828-7-6-4-5"
         d="m 1.2348688,292.53118 v 1.05833 h 0.3777549 v -1.05833 z m 0.3777549,1.05833 v 1.05833 H 2.670957 v -1.05833 z m 1.0583333,0 h 1.0583334 v -1.05833 H 2.670957 Z m 1.0583334,0 v 1.05833 h 1.0583333 v -1.05833 z m 1.0583333,0 H 5.845957 v -1.05833 H 4.7876237 Z m 1.0583333,0 v 1.05833 h 1.0583334 v -1.05833 z m 1.0583334,0 h 1.0583332 v -1.05833 H 6.9042904 Z m 1.0583332,0 v 1.05833 h 1.058333 v -1.05833 z m 1.058333,0 h 1.0583344 v -1.05833 H 9.0209566 Z m 1.0583344,0 v 1.05833 h 1.058333 v -1.05833 z m 1.058333,0 h 1.058332 v -1.05833 h -1.058332 z m 1.058332,0 v 1.05833 h 1.058332 v -1.05833 z m 1.058332,0 h 1.058335 v -1.05833 h -1.058335 z m 1.058335,0 v 1.05833 h 1.058332 v -1.05833 z m 1.058332,0 h 0.377756 v -1.05833 h -0.377756 z m 0,1.05833 v 1.05834 h 0.127644 c 0.138208,0 0.250113,-0.12125 0.250113,-0.27079 v -0.78755 z m -1.058332,0 h -1.058335 v 1.05834 h 1.058335 z m -2.116667,0 h -1.058332 v 1.05834 h 1.058333 z m -2.116666,0 H 9.0209566 v 1.05834 h 1.0583344 z m -2.1166664,0 H 6.9042904 v 1.05834 h 1.0583332 z m -2.1166666,0 H 4.7876237 v 1.05834 H 5.845957 Z m -2.1166666,0 H 2.670957 v 1.05834 h 1.0583334 z m -2.1166667,0 H 1.2348688 v 0.78755 c 0,0.14946 0.1119061,0.27079 0.2501141,0.27079 h 0.1276408 z"
         style="opacity:0.2;fill:#fffff9;fill-opacity:1;stroke:none;stroke-width:0.35277766;stroke-miterlimit:4;stroke-dasharray:none;stroke-opacity:1" />
    </g>
  </g>
</svg>
