<?xml version="1.0" encoding="UTF-8" standalone="no"?>
<!-- Created with Inkscape (http://www.inkscape.org/) -->

<svg
   xmlns:dc="http://purl.org/dc/elements/1.1/"
   xmlns:cc="http://creativecommons.org/ns#"
   xmlns:rdf="http://www.w3.org/1999/02/22-rdf-syntax-ns#"
   xmlns:svg="http://www.w3.org/2000/svg"
   xmlns="http://www.w3.org/2000/svg"
   xmlns:xlink="http://www.w3.org/1999/xlink"
   xmlns:sodipodi="http://sodipodi.sourceforge.net/DTD/sodipodi-0.dtd"
   xmlns:inkscape="http://www.inkscape.org/namespaces/inkscape"
   width="64"
   height="64"
   viewBox="0 0 16.933333 16.933333"
   version="1.1"
   id="svg8"
   inkscape:version="0.92.4 5da689c313, 2019-01-14"
   sodipodi:docname="folder-locked.svg"
   inkscape:export-filename="/home/kieran/.themes/skism-gtk/gtk-3.0/check-radio/checkbox-mixed-disabled.png"
   inkscape:export-xdpi="96"
   inkscape:export-ydpi="96">
  <defs
     id="defs2">
    <linearGradient
       inkscape:collect="always"
       id="linearGradient893">
      <stop
         style="stop-color:#92ddff;stop-opacity:1"
         offset="0"
         id="stop887" />
      <stop
         id="stop889"
         offset="0.92607242"
         style="stop-color:#66ccff;stop-opacity:1" />
      <stop
         style="stop-color:#5cc2f8;stop-opacity:1"
         offset="1"
         id="stop891" />
    </linearGradient>
    <linearGradient
       inkscape:collect="always"
       xlink:href="#linearGradient893"
       id="linearGradient860"
       gradientUnits="userSpaceOnUse"
       gradientTransform="matrix(-0.94581281,0,0,1.0231148,-2.0436774,-8.6979601)"
       x1="-10.583333"
       y1="286.41666"
       x2="-10.583333"
       y2="297.52914" />
  </defs>
  <sodipodi:namedview
     id="base"
     pagecolor="#1e2023"
     bordercolor="#666666"
     borderopacity="1.0"
     inkscape:pageopacity="0"
     inkscape:pageshadow="2"
     inkscape:zoom="6.8789062"
     inkscape:cx="-12.109578"
     inkscape:cy="29.94413"
     inkscape:document-units="mm"
     inkscape:current-layer="layer1"
     showgrid="true"
     units="px"
     inkscape:showpageshadow="false"
     inkscape:window-width="3840"
     inkscape:window-height="2013"
     inkscape:window-x="0"
     inkscape:window-y="0"
     inkscape:window-maximized="1"
     inkscape:snap-grids="true"
     inkscape:snap-smooth-nodes="false">
    <inkscape:grid
       type="xygrid"
       id="grid815"
       color="#3f3f3f"
       opacity="0.1254902"
       empcolor="#3f3f3f"
       empopacity="0.25098039" />
  </sodipodi:namedview>
  <metadata
     id="metadata5">
    <rdf:RDF>
      <cc:Work
         rdf:about="">
        <dc:format>image/svg+xml</dc:format>
        <dc:type
           rdf:resource="http://purl.org/dc/dcmitype/StillImage" />
        <dc:title></dc:title>
      </cc:Work>
    </rdf:RDF>
  </metadata>
  <g
     inkscape:label="Layer 1"
     inkscape:groupmode="layer"
     id="layer1"
     transform="translate(0,-280.06664)">
    <g
       id="g851">
      <g
         transform="matrix(-1,0,0,1,16.933334,-0.06213333)"
         id="g822">
        <path
           style="fill:#147eb8;fill-opacity:1;stroke-width:0.23313032"
           d="m 14.272381,283.0742 v 9.4e-4 c -1.026349,-3.5e-4 -4.4296799,-2e-4 -4.8380949,0 -0.3572837,1.7e-4 -0.9014901,0.48537 -1.192515,0.4857 -2.0216338,0.002 -6.0646278,-0.004 -6.0646278,-0.004 v 0.004 h 0.224896 c -0.124058,0 -0.224896,0.10824 -0.224896,0.24191 v 5.32096 c 0,0.13407 0.100456,0.2419 0.224896,0.2419 H 14.531294 c 0.124442,0 0.224896,-0.10787 0.224896,-0.2419 v -5.32285 -0.24285 -0.21167 c 0,-0.15104 -0.12115,-0.27214 -0.272143,-0.27214 z"
           id="rect4180-3-9-6"
           inkscape:connector-curvature="0" />
        <path
           style="fill:url(#linearGradient860);fill-opacity:1;stroke:#147eb8;stroke-width:0.066;stroke-miterlimit:4;stroke-dasharray:none;stroke-opacity:0.39215686;paint-order:stroke fill markers"
           d="m 9.9681448,284.33597 c 0.3877182,0.004 0.5521742,1.07879 1.0009842,1.0828 1.501427,0.0138 4.504435,0 4.504435,0 0.138204,0 0.250246,0.12106 0.250246,0.27071 h -4.85e-4 c 1.3e-5,10e-4 4.85e-4,0.002 4.85e-4,0.004 v 9.74199 c 0,0.14954 -0.112037,0.27072 -0.250246,0.27072 H 1.4597713 c -0.1382071,0 -0.2502464,-0.12126 -0.2502464,-0.27072 v -9.74199 -0.004 -1.08281 c 0,-0.14954 0.1120384,-0.2707 0.2502464,-0.2707 0.9112306,1e-4 5.6723804,-0.0295 8.5083735,0 z"
           id="rect4113-2-5-2-2"
           inkscape:connector-curvature="0"
           sodipodi:nodetypes="sssccsssssccscs" />
      </g>
      <path
         d="m 8.4666668,287.73956 c -0.8794767,0 -1.5875001,0.70802 -1.5875001,1.5875 v 1.05834 H 6.3500001 v 2.64582 h 4.2333329 v -2.64582 h -0.529166 v -1.05834 c 0,-0.87948 -0.7080236,-1.5875 -1.5875002,-1.5875 z m 0,0.52916 c 0.5863168,0 1.0583334,0.47202 1.0583334,1.05834 v 1.05834 H 7.4083333 v -1.05834 c 0,-0.58632 0.4720168,-1.05834 1.0583335,-1.05834 z m -1.5875001,2.64584 h 0.5291666 2.1166669 0.5291668 v 1.5875 H 6.8791667 Z"
         id="rect4184"
         style="opacity:0.65;fill:#147eb8;fill-opacity:1;stroke-width:0.52916664"
         inkscape:connector-curvature="0" />
    </g>
  </g>
</svg>
