<?xml version="1.0" encoding="UTF-8" standalone="no"?>
<!-- Created with Inkscape (http://www.inkscape.org/) -->

<svg
   xmlns:dc="http://purl.org/dc/elements/1.1/"
   xmlns:cc="http://creativecommons.org/ns#"
   xmlns:rdf="http://www.w3.org/1999/02/22-rdf-syntax-ns#"
   xmlns:svg="http://www.w3.org/2000/svg"
   xmlns="http://www.w3.org/2000/svg"
   xmlns:xlink="http://www.w3.org/1999/xlink"
   xmlns:sodipodi="http://sodipodi.sourceforge.net/DTD/sodipodi-0.dtd"
   xmlns:inkscape="http://www.inkscape.org/namespaces/inkscape"
   width="64"
   height="64"
   viewBox="0 0 16.933333 16.933333"
   version="1.1"
   id="svg8"
   inkscape:version="0.92.4 5da689c313, 2019-01-14"
   sodipodi:docname="folder-arch.svg"
   inkscape:export-filename="/home/kieran/.themes/skism-gtk/gtk-3.0/check-radio/checkbox-mixed-disabled.png"
   inkscape:export-xdpi="96"
   inkscape:export-ydpi="96">
  <defs
     id="defs2">
    <linearGradient
       inkscape:collect="always"
       xlink:href="#linearGradient893"
       id="linearGradient860"
       gradientUnits="userSpaceOnUse"
       gradientTransform="matrix(-0.94581281,0,0,1.0231148,-2.0436774,-8.6979645)"
       x1="-10.583333"
       y1="286.41666"
       x2="-10.583333"
       y2="297.52914" />
    <linearGradient
       inkscape:collect="always"
       id="linearGradient893">
      <stop
         style="stop-color:#92ddff;stop-opacity:1"
         offset="0"
         id="stop887" />
      <stop
         id="stop889"
         offset="0.92607242"
         style="stop-color:#66ccff;stop-opacity:1" />
      <stop
         style="stop-color:#5cc2f8;stop-opacity:1"
         offset="1"
         id="stop891" />
    </linearGradient>
  </defs>
  <sodipodi:namedview
     id="base"
     pagecolor="#1e2023"
     bordercolor="#666666"
     borderopacity="1.0"
     inkscape:pageopacity="1"
     inkscape:pageshadow="2"
     inkscape:zoom="13.796875"
     inkscape:cx="-6.5594562"
     inkscape:cy="32"
     inkscape:document-units="mm"
     inkscape:current-layer="layer1"
     showgrid="true"
     units="px"
     inkscape:showpageshadow="false"
     inkscape:window-width="3840"
     inkscape:window-height="2013"
     inkscape:window-x="0"
     inkscape:window-y="0"
     inkscape:window-maximized="1"
     inkscape:snap-grids="true"
     inkscape:snap-smooth-nodes="false">
    <inkscape:grid
       type="xygrid"
       id="grid815"
       color="#3f3f3f"
       opacity="0.1254902"
       empcolor="#3f3f3f"
       empopacity="0.25098039" />
  </sodipodi:namedview>
  <metadata
     id="metadata5">
    <rdf:RDF>
      <cc:Work
         rdf:about="">
        <dc:format>image/svg+xml</dc:format>
        <dc:type
           rdf:resource="http://purl.org/dc/dcmitype/StillImage" />
        <dc:title />
      </cc:Work>
    </rdf:RDF>
  </metadata>
  <g
     inkscape:label="Layer 1"
     inkscape:groupmode="layer"
     id="layer1"
     transform="translate(0,-280.06664)">
    <g
       id="g830"
       transform="matrix(-1,0,0,1,16.933335,-0.06219625)">
      <path
         inkscape:connector-curvature="0"
         id="rect4180-3-9-6"
         d="m 14.272381,283.0742 v 9.4e-4 c -1.026349,-3.5e-4 -4.4296799,-2e-4 -4.8380949,0 -0.3572837,1.7e-4 -0.9014901,0.48537 -1.192515,0.4857 -2.0216338,0.002 -6.0646278,-0.004 -6.0646278,-0.004 v 0.004 h 0.224896 c -0.124058,0 -0.224896,0.10824 -0.224896,0.24191 v 5.32096 c 0,0.13407 0.100456,0.2419 0.224896,0.2419 H 14.531294 c 0.124442,0 0.224896,-0.10787 0.224896,-0.2419 v -5.32285 -0.24285 -0.21167 c 0,-0.15104 -0.12115,-0.27214 -0.272143,-0.27214 z"
         style="fill:#147eb8;fill-opacity:1;stroke-width:0.23313032" />
      <path
         sodipodi:nodetypes="sssccsssssccscs"
         inkscape:connector-curvature="0"
         id="rect4113-2-5-2-2"
         d="m 9.9681448,284.33597 c 0.3877182,0.004 0.5521742,1.07878 1.0009842,1.0828 1.501427,0.0138 4.504435,0 4.504435,0 0.138204,0 0.250246,0.12105 0.250246,0.27071 h -4.85e-4 c 1.3e-5,10e-4 4.85e-4,0.002 4.85e-4,0.004 v 9.74199 c 0,0.14954 -0.112037,0.27071 -0.250246,0.27071 H 1.4597713 c -0.1382071,0 -0.2502464,-0.12125 -0.2502464,-0.27071 v -9.74199 -0.004 -1.08281 c 0,-0.14954 0.1120384,-0.2707 0.2502464,-0.2707 0.9112306,9e-5 5.6723804,-0.0295 8.5083735,0 z"
         style="fill:url(#linearGradient860);fill-opacity:1;stroke:#147eb8;stroke-width:0.06614583;stroke-miterlimit:4;stroke-dasharray:none;stroke-opacity:0.39215686;paint-order:stroke fill markers" />
      <path
         inkscape:connector-curvature="0"
         d="m 8.4661569,287.36867 c -0.23554,0.57744 -0.3776,0.95516 -0.63982,1.51546 0.1608,0.1704 0.35814,0.36888 0.67862,0.59304 -0.34456,-0.1418 -0.5796,-0.28414 -0.75524,-0.43186 -0.3356,0.7003 -0.8614,1.69782 -1.9284,3.61502 0.83862,-0.48416 1.48872,-0.78264 2.09458,-0.89654 -0.026,-0.112 -0.0408,-0.23292 -0.0398,-0.35922 l 9.8e-4,-0.0268 c 0.014,-0.53728 0.2928,-0.95046 0.6239002,-0.9224 0.33108,0.028 0.58844,0.4866 0.5751398,1.0239 -0.002,0.101 -0.014,0.1984 -0.0338,0.28856 0.5992801,0.1172 1.2424211,0.41496 2.0697011,0.89256 -0.1632,-0.30032 -0.30872,-0.57104 -0.44776,-0.82888 -0.21902,-0.1698 -0.44748,-0.39068 -0.9134611,-0.62986 0.3202811,0.0832 0.5496211,0.1792 0.7283811,0.28658 -1.4137211,-2.63208 -1.5282011,-2.98184 -2.012981,-4.1195 z"
         id="path2518-3"
         style="opacity:0.65;fill:#147eb8;fill-opacity:1;fill-rule:evenodd;stroke:none;stroke-width:0.03184152" />
    </g>
  </g>
</svg>
